# This file uses centimeters as units for non-parametric coordinates.

mtllib box.mtl
g default
v -3.067548 0.085551 3.067548
v 3.067548 0.085551 3.067548
v -3.067548 6.220646 3.067548
v 3.067548 6.220646 3.067548
v -3.067548 6.220646 -3.067548
v 3.067548 6.220646 -3.067548
v -3.067548 0.085551 -3.067548
v 3.067548 0.085551 -3.067548
vt 0.000032 0.000000
vt 1.000032 0.000000
vt 1.000032 1.000000
vt 0.000032 1.000000
vt 0.001992 0.990195
vt 0.009729 0.001992
vt 0.997936 0.009806
vt 0.990199 0.998008
vt 0.001992 0.001992
vt 0.998007 0.001992
vt 0.998007 0.998008
vt 0.001992 0.998008
vt 0.001992 0.001992
vt 0.998008 0.001992
vt 0.998008 0.998008
vt 0.001992 0.998008
vt 0.001992 0.001992
vt 0.998008 0.001992
vt 0.998008 0.998008
vt 0.001992 0.998008
vt 0.000000 0.000000
vt 1.000000 0.000000
vt 1.000000 1.000000
vt 0.000000 1.000000
vn 0.000000 0.000000 1.000000
vn 0.000000 0.000000 1.000000
vn 0.000000 0.000000 1.000000
vn 0.000000 0.000000 1.000000
vn 0.000000 1.000000 0.000000
vn 0.000000 1.000000 0.000000
vn 0.000000 1.000000 0.000000
vn 0.000000 1.000000 0.000000
vn 0.000000 0.000000 -1.000000
vn 0.000000 0.000000 -1.000000
vn 0.000000 0.000000 -1.000000
vn 0.000000 0.000000 -1.000000
vn 0.000000 -1.000000 0.000000
vn 0.000000 -1.000000 0.000000
vn 0.000000 -1.000000 0.000000
vn 0.000000 -1.000000 0.000000
vn 1.000000 0.000000 0.000000
vn 1.000000 0.000000 0.000000
vn 1.000000 0.000000 0.000000
vn 1.000000 0.000000 0.000000
vn -1.000000 0.000000 0.000000
vn -1.000000 0.000000 0.000000
vn -1.000000 0.000000 0.000000
vn -1.000000 0.000000 0.000000
s off
g pCube1
usemtl blinn1SG
f 1/1/1 2/2/2 4/3/3 3/4/4
f 3/5/5 4/6/6 6/7/7 5/8/8
f 5/9/9 6/10/10 8/11/11 7/12/12
f 7/17/13 8/18/14 2/19/15 1/20/16
f 2/21/17 8/22/18 6/23/19 4/24/20
f 7/13/21 1/14/22 3/15/23 5/16/24
